<?xml version="1.0" encoding="UTF-8" standalone="no"?>
<!-- Generator: Adobe Illustrator 18.1.1, SVG Export Plug-In . SVG Version: 6.00 Build 0)  -->
<svg id="Layer_1" xmlns="http://www.w3.org/2000/svg" xml:space="preserve" viewBox="0 0 48 48" version="1.1" y="0px" x="0px" xmlns:xlink="http://www.w3.org/1999/xlink" enable-background="new 0 0 48 48">
<path stroke="#4A90E2" stroke-width="2" stroke-miterlimit="10" d="m13 12s-3 0-3 3v6s0 3-3 3" fill="none"/>
<path stroke="#4A90E2" stroke-width="2" stroke-miterlimit="10" d="m13 36s-3 0-3-3v-6s0-3-3-3" fill="none"/>
<path stroke="#4A90E2" stroke-width="2" stroke-miterlimit="10" d="m35 12s3 0 3 3v6s0 3 3 3" fill="none"/>
<path stroke="#4A90E2" stroke-width="2" stroke-miterlimit="10" d="m35 36s3 0 3-3v-6s0-3 3-3" fill="none"/>
<line y2="23" x1="19" x2="19" stroke="#4A90E2" stroke-miterlimit="10" y1="14" stroke-width="2" fill="none"/>
<path stroke="#4A90E2" stroke-width="2" stroke-miterlimit="10" d="m27 22h-1c-1.6 0-3-1.4-3-3v-1c0-1.6 1.4-3 3-3h1c1.6 0 3 1.4 3 3v1c0 1.6-1.4 3-3 3z" fill="none"/>
<line y2="15" x1="19" x2="17" stroke="#4A90E2" stroke-miterlimit="10" y1="15" stroke-width="2" fill="none"/>
<line y2="34" x1="30" x2="30" stroke="#4A90E2" stroke-miterlimit="10" y1="25" stroke-width="2" fill="none"/>
<path stroke="#4A90E2" stroke-width="2" stroke-miterlimit="10" d="m22 33h-1c-1.6 0-3-1.4-3-3v-1c0-1.6 1.4-3 3-3h1c1.6 0 3 1.4 3 3v1c0 1.6-1.4 3-3 3z" fill="none"/>
<line y2="26" x1="30" x2="28" stroke="#4A90E2" stroke-miterlimit="10" y1="26" stroke-width="2" fill="none"/>
</svg>
