<?xml version="1.0" encoding="utf-8"?>
<!-- Generator: Adobe Illustrator 18.1.1, SVG Export Plug-In . SVG Version: 6.00 Build 0)  -->
<svg version="1.1" id="Layer_1" xmlns="http://www.w3.org/2000/svg" xmlns:xlink="http://www.w3.org/1999/xlink" x="0px" y="0px"
	 viewBox="0 0 24 24" enable-background="new 0 0 24 24" xml:space="preserve">
<g>
	<path fill="#4A90E2" d="M18,1H5C3.3,1,2,2.3,2,4v5v2v8c0,1.7,1.3,3,3,3h8.1c-0.6-0.6-1.1-1.3-1.4-2H5c-0.6,0-1-0.4-1-1v-3.6l4-4
		l3.4,3.4c0.2-0.7,0.6-1.3,1-1.9L9.4,10L11,8.4l2.9,2.9c1-0.7,2.2-1.2,3.5-1.3L19,8.4v1.7c0.7,0.1,1.4,0.3,2,0.6V4
		C21,2.3,19.7,1,18,1z M4,12.6V11h1.6L4,12.6z M19,5.6l-4,4l-4-4L7.6,9H4V4c0-0.6,0.4-1,1-1h13c0.6,0,1,0.4,1,1V5.6z"/>
	<polygon fill="#4A90E2" points="19,14 17,14 17,16 15,16 15,18 17,18 17,20 19,20 19,18 21,18 21,16 19,16 	"/>
</g>
</svg>
