<?xml version="1.0" encoding="utf-8"?>
<!-- Generator: Adobe Illustrator 18.1.1, SVG Export Plug-In . SVG Version: 6.00 Build 0)  -->
<svg version="1.1" id="Layer_1" xmlns="http://www.w3.org/2000/svg" xmlns:xlink="http://www.w3.org/1999/xlink" x="0px" y="0px"
	 viewBox="0 0 24 24" enable-background="new 0 0 24 24" xml:space="preserve">
<g>
	<path fill="#4A90E2" d="M11,10l3,2l-3,2V10 M11,8c-0.3,0-0.6,0.1-0.9,0.2C9.4,8.6,9,9.3,9,10v4c0,0.7,0.4,1.4,1.1,1.8
		C10.4,16,10.7,16,11,16c0.4,0,0.8-0.1,1.1-0.3l3-2c0.6-0.4,0.9-1,0.9-1.7s-0.3-1.3-0.9-1.7l-3-2C11.8,8.1,11.4,8,11,8L11,8z"/>
</g>
<path fill="#4A90E2" d="M12,23C5.9,23,1,18.1,1,12S5.9,1,12,1s11,4.9,11,11S18.1,23,12,23z M12,3c-5,0-9,4-9,9c0,5,4,9,9,9
	c5,0,9-4,9-9C21,7,17,3,12,3z"/>
</svg>
