<?xml version="1.0" encoding="utf-8"?>
<!-- Generator: Adobe Illustrator 18.1.1, SVG Export Plug-In . SVG Version: 6.00 Build 0)  -->
<svg version="1.1" id="Layer_1" xmlns="http://www.w3.org/2000/svg" xmlns:xlink="http://www.w3.org/1999/xlink" x="0px" y="0px"
	 viewBox="0 0 24 24" enable-background="new 0 0 24 24" xml:space="preserve">
<g>
	<rect x="2" y="9" fill="#4A90E2" width="2" height="5"/>
	<rect x="7" y="6" fill="#4A90E2" width="9" height="2"/>
	<rect x="1" y="6" fill="#4A90E2" width="4" height="2"/>
	<rect x="1" y="15" fill="#4A90E2" width="4" height="2"/>
	<polygon fill="#4A90E2" points="20,14 18,14 18,16 16,16 16,18 18,18 18,20 20,20 20,18 22,18 22,16 20,16 	"/>
	<path fill="#4A90E2" d="M19,1H5C3.3,1,2,2.3,2,4v1h2V4c0-0.6,0.4-1,1-1h14c0.6,0,1,0.4,1,1v6.1c0.7,0.1,1.4,0.3,2,0.6V4
		C22,2.3,20.7,1,19,1z"/>
	<path fill="#4A90E2" d="M5,20c-0.6,0-1-0.4-1-1v-1H2v1c0,1.7,1.3,3,3,3h9.1c-0.6-0.6-1.1-1.3-1.4-2H5z"/>
	<path fill="#4A90E2" d="M17,9H7v2h8.4c0.5-0.3,1-0.5,1.6-0.7V9z"/>
	<path fill="#4A90E2" d="M7,14h5.7c0.4-0.7,0.8-1.4,1.4-2H7V14z"/>
	<path fill="#4A90E2" d="M7,15v2h5c0-0.7,0.1-1.4,0.3-2H7z"/>
</g>
</svg>
