<?xml version="1.0" encoding="UTF-8" standalone="no"?>
<!-- Generator: Adobe Illustrator 18.1.1, SVG Export Plug-In . SVG Version: 6.00 Build 0)  -->
<svg id="Layer_1" xmlns="http://www.w3.org/2000/svg" xml:space="preserve" viewBox="0 0 48 48" version="1.1" y="0px" x="0px" xmlns:xlink="http://www.w3.org/1999/xlink" enable-background="new 0 0 48 48">
<path stroke="#4A90E2" stroke-width="2" stroke-miterlimit="10" d="m34.9 34h-21c-1.1 0-2-0.9-2-2v-13c0-1.1 0.9-2 2-2h21c1.1 0 2 0.9 2 2v13c0 1.1-0.9 2-2 2z" fill="none"/>
<path stroke="#4A90E2" stroke-width="2" stroke-miterlimit="10" d="m28.9 17h-15-2v-2c0-1.1 0.9-2 2-2h15c1.1 0 2 0.9 2 2v2h-2z" fill="none"/>
<path d="m30.9 26h-4c-0.5 0-1-0.4-1-1 0-0.5 0.4-1 1-1h4c0.5 0 1 0.4 1 1s-0.5 1-1 1z" fill="#4A90E2"/>
</svg>
