<?xml version="1.0" encoding="utf-8"?>
<!-- Generator: Adobe Illustrator 18.1.1, SVG Export Plug-In . SVG Version: 6.00 Build 0)  -->
<svg version="1.1" id="Layer_1" xmlns="http://www.w3.org/2000/svg" xmlns:xlink="http://www.w3.org/1999/xlink" x="0px" y="0px"
	 viewBox="0 0 34 34" enable-background="new 0 0 34 34" xml:space="preserve">
<circle fill="#636a77" cx="17" cy="17" r="17"/>
<g>
	<path fill="#FFFFFF" d="M17.5,8C15,8,13,10,13,12.5c0,0.6,0.4,1,1,1s1-0.4,1-1c0-1.4,1.1-2.5,2.5-2.5c1.4,0,2.5,1.1,2.5,2.5
		c0,1.3-0.9,2.3-2.1,2.5C17,15.1,16,15.8,16,17v3c0,0.6,0.4,1,1,1s1-0.4,1-1l0-3c0,0,0.1,0,0.2-0.1c2.2-0.3,3.9-2.2,3.9-4.5
		C22,10,20,8,17.5,8z"/>
	<circle fill="#FFFFFF" cx="17" cy="24" r="1"/>
</g>
</svg>
