<?xml version="1.0" encoding="UTF-8" standalone="no"?>
<!-- Generator: Adobe Illustrator 18.1.1, SVG Export Plug-In . SVG Version: 6.00 Build 0)  -->
<svg id="Layer_1" xmlns="http://www.w3.org/2000/svg" xml:space="preserve" viewBox="0 0 48 48" version="1.1" y="0px" x="0px" xmlns:xlink="http://www.w3.org/1999/xlink" enable-background="new 0 0 48 48">
<line y2="13" x1="21" x2="38" stroke="#4A90E2" stroke-miterlimit="10" y1="13" stroke-width="2" fill="none"/>
<line y2="23" x1="21" x2="38" stroke="#4A90E2" stroke-miterlimit="10" y1="23" stroke-width="2" fill="none"/>
<path stroke="#4A90E2" stroke-width="2" stroke-miterlimit="10" d="m14 16h-2c-1.1 0-2-0.9-2-2v-2c0-1.1 0.9-2 2-2h2c1.1 0 2 0.9 2 2v2c0 1.1-0.9 2-2 2z" fill="none"/>
<path stroke="#4A90E2" stroke-width="2" stroke-miterlimit="10" d="m14 26h-2c-1.1 0-2-0.9-2-2v-2c0-1.1 0.9-2 2-2h2c1.1 0 2 0.9 2 2v2c0 1.1-0.9 2-2 2z" fill="none"/>
<line y2="33" x1="21" x2="38" stroke="#4A90E2" stroke-miterlimit="10" y1="33" stroke-width="2" fill="none"/>
<path stroke="#4A90E2" stroke-width="2" stroke-miterlimit="10" d="m14 36h-2c-1.1 0-2-0.9-2-2v-2c0-1.1 0.9-2 2-2h2c1.1 0 2 0.9 2 2v2c0 1.1-0.9 2-2 2z" fill="none"/>
</svg>
