<?xml version="1.0" encoding="utf-8"?>
<!-- Generator: Adobe Illustrator 18.1.1, SVG Export Plug-In . SVG Version: 6.00 Build 0)  -->
<svg version="1.1" id="Layer_1" xmlns="http://www.w3.org/2000/svg" xmlns:xlink="http://www.w3.org/1999/xlink" x="0px" y="0px"
	 viewBox="0 0 32 32" enable-background="new 0 0 32 32" xml:space="preserve">
<rect fill="#4A90E2" x="14" y="8" width="16" height="2"/>
<rect fill="#4A90E2" x="14" y="17" width="9" height="2"/>
<path fill="#4A90E2" d="M6,13c-2.2,0-4-1.8-4-4h2c0,1.1,0.9,2,2,2s2-0.9,2-2h2C10,11.2,8.2,13,6,13z"/>
<path fill="#4A90E2" d="M6,21c-1.7,0-3-1.3-3-3s1.3-3,3-3s3,1.3,3,3S7.7,21,6,21z M6,17c-0.6,0-1,0.4-1,1s0.4,1,1,1s1-0.4,1-1S6.6,17,6,17z"/>
<rect fill="#4A90E2" x="14" y="26" width="14" height="2"/>
<path fill="#4A90E2" d="M6,30c-1.7,0-3-1.3-3-3s1.3-3,3-3s3,1.3,3,3S7.7,30,6,30z M6,26c-0.6,0-1,0.4-1,1s0.4,1,1,1s1-0.4,1-1S6.6,26,6,26z"/>
<polygon fill="#4A90E2" points="6,8.4 3.3,5.7 4.7,4.3 6,5.6 9.3,2.3 10.7,3.7 "/>
</svg>
