<?xml version="1.0" encoding="utf-8"?>
<!-- Generator: Adobe Illustrator 18.1.1, SVG Export Plug-In . SVG Version: 6.00 Build 0)  -->
<svg version="1.1" id="Layer_1" xmlns="http://www.w3.org/2000/svg" xmlns:xlink="http://www.w3.org/1999/xlink" x="0px" y="0px"
	 viewBox="0 0 60 60" enable-background="new 0 0 60 60" xml:space="preserve">
<linearGradient id="SVGID_1_" gradientUnits="userSpaceOnUse" x1="30" y1="7" x2="30" y2="53">
	<stop  offset="0" style="stop-color:#C87D8A"/>
	<stop  offset="1" style="stop-color:#DC6768"/>
</linearGradient>
<path fill="url(#SVGID_1_)" d="M47,55H24c-2.8,0-5-2.2-5-5v-1c0-1.7-1.3-3-3-3H7v-2h9c2.8,0,5,2.2,5,5v1c0,1.7,1.3,3,3,3h23
	c1.7,0,3-1.3,3-3s-1.3-3-3-3v-2c0.3,0,0.7,0,1,0.1V45c1.7,0,3-1.3,3-3s-1.3-3-3-3v-2c1.7,0,3-1.3,3-3s-1.3-3-3-3v-0.1
	C47.7,31,47.3,31,47,31v-2c1.7,0,3-1.3,3-3s-1.3-3-3-3H33c-4,0-5-3.3-5-5v-8c0-1.7-1.3-3-3-3c-1.5,0-2.4,0.2-2.7,0.6
	C22,8.1,22,8.9,22,9.9V26c0,2.8-2.2,5-5,5H7v-2h10c1.7,0,3-1.3,3-3V10c0-1.4,0-2.6,0.7-3.5C21.4,5.4,22.8,5,25,5c2.8,0,5,2.2,5,5v8
	c0,0.5,0.2,3,3,3h14c2.8,0,5,2.2,5,5c0,1.4-0.6,2.7-1.6,3.6C52,30.5,53,32.1,53,34c0,1.6-0.8,3.1-2,4c1.2,0.9,2,2.4,2,4
	c0,1.9-1,3.5-2.6,4.4c1,0.9,1.6,2.2,1.6,3.6C52,52.8,49.8,55,47,55z"/>
</svg>
