<?xml version="1.0" encoding="utf-8"?>
<!-- Generator: Adobe Illustrator 18.1.1, SVG Export Plug-In . SVG Version: 6.00 Build 0)  -->
<svg version="1.1" id="Layer_1" xmlns="http://www.w3.org/2000/svg" xmlns:xlink="http://www.w3.org/1999/xlink" x="0px" y="0px"
	 viewBox="0 0 60 60" enable-background="new 0 0 60 60" xml:space="preserve">
<linearGradient id="SVGID_1_" gradientUnits="userSpaceOnUse" x1="3" y1="30" x2="57" y2="30">
	<stop  offset="0" style="stop-color:#A7A4C8"/>
	<stop  offset="1" style="stop-color:#C58190"/>
</linearGradient>
<path fill="url(#SVGID_1_)" d="M31,56h-2V46h2V56z M49.3,50.7l-8-8l1.4-1.4l8,8L49.3,50.7z M10.7,50.7l-1.4-1.4l8-8l1.4,1.4
	L10.7,50.7z M57,31H45v-2h12V31z M15,31H3v-2h12V31z M42.7,18.7l-1.4-1.4l8-8l1.4,1.4L42.7,18.7z M17.3,18.7l-8-8l1.4-1.4l8,8
	L17.3,18.7z M31,14h-2V4h2V14z"/>
</svg>
