<?xml version="1.0" encoding="utf-8"?>
<!-- Generator: Adobe Illustrator 18.1.1, SVG Export Plug-In . SVG Version: 6.00 Build 0)  -->
<svg version="1.1" id="Layer_1" xmlns="http://www.w3.org/2000/svg" xmlns:xlink="http://www.w3.org/1999/xlink" x="0px" y="0px"
	 viewBox="0 0 60 60" enable-background="new 0 0 60 60" xml:space="preserve">
<linearGradient id="SVGID_1_" gradientUnits="userSpaceOnUse" x1="29.5" y1="10" x2="29.5" y2="49">
	<stop  offset="0" style="stop-color:#C87D8A"/>
	<stop  offset="1" style="stop-color:#DC6768"/>
</linearGradient>
<path fill="url(#SVGID_1_)" d="M42,55c-0.3,0-0.5-0.1-0.7-0.3c-0.4-0.4-0.4-1,0-1.4l4.3-4.3H37c-4.4,0-8.3-2.6-10-6.4
	c-1.7,3.8-5.6,6.4-10,6.4h-6c-0.6,0-1-0.4-1-1s0.4-1,1-1h6c5,0,9-4,9-9V21c0-5-4-9-9-9h-6c-0.6,0-1-0.4-1-1s0.4-1,1-1h6
	c4.4,0,8.3,2.6,10,6.4c1.7-3.8,5.6-6.4,10-6.4h8.6l-4.3-4.3c-0.4-0.4-0.4-1,0-1.4s1-0.4,1.4,0l6,6c0.1,0.1,0.2,0.2,0.2,0.3
	c0,0.1,0.1,0.2,0.1,0.4l0,0c0,0,0,0,0,0l0,0c0,0.1,0,0.3-0.1,0.4c0,0.1-0.1,0.2-0.2,0.3l-6,6c-0.4,0.4-1,0.4-1.4,0s-0.4-1,0-1.4
	l4.3-4.3H37c-5,0-9,4-9,9v17c0,5,4,9,9,9h8.6l-4.3-4.3c-0.4-0.4-0.4-1,0-1.4s1-0.4,1.4,0l6,6c0.1,0.1,0.2,0.2,0.2,0.3
	c0,0.1,0.1,0.2,0.1,0.4l0,0c0,0,0,0,0,0l0,0c0,0.1,0,0.3-0.1,0.4c0,0.1-0.1,0.2-0.2,0.3l-6,6C42.5,54.9,42.3,55,42,55z"/>
</svg>
