<?xml version="1.0" encoding="utf-8"?>
<!-- Generator: Adobe Illustrator 18.1.1, SVG Export Plug-In . SVG Version: 6.00 Build 0)  -->
<svg version="1.1" id="Layer_1" xmlns="http://www.w3.org/2000/svg" xmlns:xlink="http://www.w3.org/1999/xlink" x="0px" y="0px"
	 viewBox="0 0 60 60" enable-background="new 0 0 60 60" xml:space="preserve">
<linearGradient id="SVGID_1_" gradientUnits="userSpaceOnUse" x1="2" y1="30" x2="58" y2="30">
	<stop  offset="0" style="stop-color:#93BCEC"/>
	<stop  offset="1" style="stop-color:#A6A6CA"/>
</linearGradient>
<path fill="url(#SVGID_1_)" d="M48,54H25v-2h23V54z M11,50H7c-2.8,0-5-2.2-5-5v-4c0-2.8,2.2-5,5-5h4c2.8,0,5,2.2,5,5v4
	C16,47.8,13.8,50,11,50z M7,38c-1.7,0-3,1.3-3,3v4c0,1.7,1.3,3,3,3h4c1.7,0,3-1.3,3-3v-4c0-1.7-1.3-3-3-3H7z M58,44H25v-2h33V44z
	 M48,24H25v-2h23V24z M11,20H7c-2.8,0-5-2.2-5-5v-4c0-2.8,2.2-5,5-5h4c2.8,0,5,2.2,5,5v4C16,17.8,13.8,20,11,20z M7,8
	c-1.7,0-3,1.3-3,3v4c0,1.7,1.3,3,3,3h4c1.7,0,3-1.3,3-3v-4c0-1.7-1.3-3-3-3H7z M58,14H25v-2h33V14z"/>
</svg>
