<?xml version="1.0" encoding="utf-8"?>
<!-- Generator: Adobe Illustrator 18.1.1, SVG Export Plug-In . SVG Version: 6.00 Build 0)  -->
<svg version="1.1" id="Layer_1" xmlns="http://www.w3.org/2000/svg" xmlns:xlink="http://www.w3.org/1999/xlink" x="0px" y="0px"
	 viewBox="0 0 60 60" enable-background="new 0 0 60 60" xml:space="preserve">
<linearGradient id="SVGID_1_" gradientUnits="userSpaceOnUse" x1="10" y1="29.5" x2="49" y2="29.5">
	<stop  offset="0" style="stop-color:#C87D8A"/>
	<stop  offset="1" style="stop-color:#DC6768"/>
</linearGradient>
<path fill="url(#SVGID_1_)" d="M17,55c-0.3,0-0.5-0.1-0.7-0.3l-6-6c-0.1-0.1-0.2-0.2-0.2-0.3c0-0.1-0.1-0.2-0.1-0.4l0,0c0,0,0,0,0,0
	l0,0c0-0.1,0-0.3,0.1-0.4c0-0.1,0.1-0.2,0.2-0.3l6-6c0.4-0.4,1-0.4,1.4,0s0.4,1,0,1.4L13.4,47H38c5,0,9-4,9-9v-7c0-0.6,0.4-1,1-1
	s1,0.4,1,1v7c0,6.1-4.9,11-11,11H13.4l4.3,4.3c0.4,0.4,0.4,1,0,1.4C17.5,54.9,17.3,55,17,55z M11,29c-0.6,0-1-0.4-1-1v-7
	c0-6.1,4.9-11,11-11h24.6l-4.3-4.3c-0.4-0.4-0.4-1,0-1.4s1-0.4,1.4,0l6,6c0.1,0.1,0.2,0.2,0.2,0.3c0,0.1,0.1,0.2,0.1,0.4l0,0
	c0,0,0,0,0,0l0,0c0,0.1,0,0.3-0.1,0.4c0,0.1-0.1,0.2-0.2,0.3l-6,6c-0.4,0.4-1,0.4-1.4,0s-0.4-1,0-1.4l4.3-4.3H21c-5,0-9,4-9,9v7
	C12,28.6,11.6,29,11,29z"/>
</svg>
