<?xml version="1.0" encoding="utf-8"?>
<!-- Generator: Adobe Illustrator 18.1.1, SVG Export Plug-In . SVG Version: 6.00 Build 0)  -->
<svg version="1.1" id="Layer_1" xmlns="http://www.w3.org/2000/svg" xmlns:xlink="http://www.w3.org/1999/xlink" x="0px" y="0px"
	 viewBox="0 0 48 48" enable-background="new 0 0 48 48" xml:space="preserve">
<path fill="none" stroke="#FFFFFF" stroke-width="2" stroke-miterlimit="10" d="M43,47H5c-2.2,0-4-1.8-4-4V5c0-2.2,1.8-4,4-4h38
	c2.2,0,4,1.8,4,4v38C47,45.2,45.2,47,43,47z"/>
<path fill="none" stroke="#FFFFFF" stroke-width="2" stroke-miterlimit="10" d="M25,29h-2c-2.8,0-5-2.2-5-5v-5c0-2.8,2.2-5,5-5h2
	c2.8,0,5,2.2,5,5v5C30,26.8,27.8,29,25,29z"/>
<path fill="none" stroke="#FFFFFF" stroke-width="2" stroke-miterlimit="10" d="M24,28v3c0,0,0,2,2,2h2"/>
</svg>
