<?xml version="1.0" encoding="utf-8"?>
<!-- Generator: Adobe Illustrator 18.1.1, SVG Export Plug-In . SVG Version: 6.00 Build 0)  -->
<svg version="1.1" id="Layer_1" xmlns="http://www.w3.org/2000/svg" xmlns:xlink="http://www.w3.org/1999/xlink" x="0px" y="0px"
	 viewBox="0 0 48 48" enable-background="new 0 0 48 48" xml:space="preserve">
<g>
	<path fill="#FFFFFF" d="M25,15h-2c-2.2,0-4,1.8-4,4v5c0,2.2,1.8,4,4,4h2c2.2,0,4-1.8,4-4v-5C29,16.8,27.2,15,25,15z"/>
	<path fill="#FFFFFF" d="M43,0H5C2.2,0,0,2.2,0,5v38c0,2.8,2.2,5,5,5h38c2.8,0,5-2.2,5-5V5C48,2.2,45.8,0,43,0z M31,24
		c0,3.3-2.7,6-6,6v1c0,0.5,0.2,1,1,1h2v2h-2c-2.2,0-3-1.8-3-3v-1c-3.3,0-6-2.7-6-6v-5c0-3.3,2.7-6,6-6h2c3.3,0,6,2.7,6,6V24z"/>
</g>
</svg>
