<?xml version="1.0" encoding="utf-8"?>
<!-- Generator: Adobe Illustrator 18.1.1, SVG Export Plug-In . SVG Version: 6.00 Build 0)  -->
<svg version="1.1" id="Layer_1" xmlns="http://www.w3.org/2000/svg" xmlns:xlink="http://www.w3.org/1999/xlink" x="0px" y="0px"
	 viewBox="0 0 113 81" enable-background="new 0 0 113 81" xml:space="preserve">
<g>
	<path fill="#989EA9" d="M80,43V5c0-2.8-2.2-5-5-5H37c-2.8,0-5,2.2-5,5v38c0,2.8,2.2,5,5,5h38C77.8,48,80,45.8,80,43z M34,43V5
		c0-1.7,1.3-3,3-3h38c1.7,0,3,1.3,3,3v38c0,1.7-1.3,3-3,3H37C35.3,46,34,44.7,34,43z"/>
	<path fill="#989EA9" d="M57,13h-2c-3.3,0-6,2.7-6,6v5c0,3.3,2.7,6,6,6v1c0,1.2,0.8,3,3,3h2v-2h-2c-0.8,0-1-0.5-1-1v-1
		c3.3,0,6-2.7,6-6v-5C63,15.7,60.3,13,57,13z M61,24c0,2.2-1.8,4-4,4h-2c-2.2,0-4-1.8-4-4v-5c0-2.2,1.8-4,4-4h2c2.2,0,4,1.8,4,4V24z
		"/>
	<path fill="#989EA9" d="M23,73c0,0.1,0,2-3,2c-2.8,0-3-1.7-3-2v-7h-2v7c0,1.4,1,4,5,4s5-2.6,5-4v-7h-2V73z"/>
	<path fill="#989EA9" d="M45,66c-4,0-5,2.6-5,4v7h2v-7c0-0.1,0-2,3-2c2.8,0,3,1.7,3,2v7h2v-7C50,68.6,49,66,45,66z"/>
	<rect x="86" y="66" fill="#989EA9" width="2" height="11"/>
	<path fill="#989EA9" d="M55,62h-2v11c0,1.6,1.1,4,4,4h1v-2h-1c-1.8,0-2-1.5-2-2v-5h3v-2h-3V62z"/>
	<path fill="#989EA9" d="M34,66h-5v2h5c0.8,0,1,0.6,1,1v1h-4l-0.2,0c-1,0.2-2.8,1.1-2.8,3.5c0,2.4,1.9,3.3,2.8,3.5l4.2,0v0h2v-8
		C37,67.8,36.2,66,34,66z M31.1,75c-0.3-0.1-1.1-0.3-1.1-1.5c0-1.1,0.8-1.4,1.1-1.5H35v3H31.1z"/>
	<path fill="#989EA9" d="M97,66h-5v2h5c0.8,0,1,0.6,1,1v1h-4l-0.2,0c-1,0.2-2.8,1.1-2.8,3.5c0,2.4,1.9,3.3,2.8,3.5l4.2,0v0h2v-8
		C100,67.8,99.2,66,97,66z M94.1,75c-0.3-0.1-1.1-0.3-1.1-1.5c0-1.1,0.8-1.4,1.1-1.5H98v3H94.1z"/>
	<path fill="#989EA9" d="M108,66c-4,0-5,2.6-5,4v7h2v-7c0-0.1,0-2,3-2c2.8,0,3,1.7,3,2v7h2v-7C113,68.6,112,66,108,66z"/>
	<path fill="#989EA9" d="M67,66h-2c-2.2,0-4,1.8-4,4v3c0,2.2,1.8,4,4,4h2c2.2,0,4-1.8,4-4v-3C71,67.8,69.2,66,67,66z M69,73
		c0,1.1-0.9,2-2,2h-2c-1.1,0-2-0.9-2-2v-3c0-1.1,0.9-2,2-2h2c1.1,0,2,0.9,2,2V73z"/>
	<path fill="#989EA9" d="M7,62H5c-2.8,0-5,2.2-5,5v5c0,2.8,2.2,5,5,5c0,1.2,0.8,3,3,3h1v-2H8c-0.8,0-1-0.5-1-1c2.8,0,5-2.2,5-5v-5
		C12,64.2,9.8,62,7,62z M10,72c0,1.7-1.3,3-3,3H5c-1.7,0-3-1.3-3-3v-5c0-1.7,1.3-3,3-3h2c1.7,0,3,1.3,3,3V72z"/>
	<path fill="#989EA9" d="M79,66h-3h-1h-1v15h2v-4h3c2,0,4-2,4-4v-3C83,68,81,66,79,66z M81,73c0,0.9-1.1,2-2,2h-3v-7h3
		c0.9,0,2,1.1,2,2V73z"/>
</g>
</svg>
