<?xml version="1.0" encoding="utf-8"?>
<!-- Generator: Adobe Illustrator 18.1.1, SVG Export Plug-In . SVG Version: 6.00 Build 0)  -->
<svg version="1.1" id="Layer_1" xmlns="http://www.w3.org/2000/svg" xmlns:xlink="http://www.w3.org/1999/xlink" x="0px" y="0px"
	 viewBox="0 0 13 14" enable-background="new 0 0 13 14" xml:space="preserve">
<g>
	<path fill="#C50000" d="M2,13.5c-0.8,0-1.5-0.7-1.5-1.5V2c0-0.8,0.7-1.5,1.5-1.5h9c0.8,0,1.5,0.7,1.5,1.5v10c0,0.8-0.7,1.5-1.5,1.5
		H2z"/>
	<path fill="#C50000" d="M11,1c0.6,0,1,0.4,1,1v10c0,0.6-0.4,1-1,1H2c-0.6,0-1-0.4-1-1V2c0-0.6,0.4-1,1-1H11 M11,0H2
		C0.9,0,0,0.9,0,2v10c0,1.1,0.9,2,2,2h9c1.1,0,2-0.9,2-2V2C13,0.9,12.1,0,11,0L11,0z"/>
</g>
<path fill="#FFFFFF" d="M7,4c0.6,0,1,0.4,1,1v2c0,0.6-0.4,1-1,1H6C5.4,8,5,7.6,5,7V5c0-0.6,0.4-1,1-1H7 M7,3H6C4.9,3,4,3.9,4,5v2
	c0,1.1,0.9,2,2,2h1c1.1,0,2-0.9,2-2V5C9,3.9,8.1,3,7,3L7,3z"/>
<path fill="#FFFFFF" d="M8,11H7.5C6.4,11,6,10.1,6,9.5V9h1v0.5C7,9.7,7.1,10,7.5,10H8V11z"/>
</svg>
