<?xml version="1.0" encoding="utf-8"?>
<!-- Generator: Adobe Illustrator 18.1.1, SVG Export Plug-In . SVG Version: 6.00 Build 0)  -->
<svg version="1.1" id="Layer_1" xmlns="http://www.w3.org/2000/svg" xmlns:xlink="http://www.w3.org/1999/xlink" x="0px" y="0px"
	 viewBox="0 0 28 28" enable-background="new 0 0 28 28" xml:space="preserve">
<g>
	<path fill="#4A90E2" d="M13,12l3,2l-3,2V12 M13,10c-0.3,0-0.6,0.1-0.9,0.2c-0.7,0.3-1.1,1-1.1,1.8v4c0,0.7,0.4,1.4,1.1,1.8
		c0.3,0.2,0.6,0.2,0.9,0.2c0.4,0,0.8-0.1,1.1-0.3l3-2c0.6-0.4,0.9-1,0.9-1.7s-0.3-1.3-0.9-1.7l-3-2C13.8,10.1,13.4,10,13,10L13,10z"
		/>
</g>
<circle fill="none" stroke="#4A90E2" stroke-width="2" stroke-linecap="round" stroke-linejoin="round" stroke-miterlimit="10" cx="14" cy="14" r="10"/>
</svg>
