<?xml version="1.0" encoding="utf-8"?>
<!-- Generator: Adobe Illustrator 18.1.1, SVG Export Plug-In . SVG Version: 6.00 Build 0)  -->
<svg version="1.1" id="Layer_1" xmlns="http://www.w3.org/2000/svg" xmlns:xlink="http://www.w3.org/1999/xlink" x="0px" y="0px"
	 viewBox="0 0 68 68" enable-background="new 0 0 68 68" xml:space="preserve">
<circle opacity="4.000000e-02" fill="#C50000" cx="34" cy="34" r="34"/>
<path fill="none" stroke="#C50000" stroke-width="2" stroke-linejoin="round" stroke-miterlimit="10" d="M43,27v-3c0-2.2-1.8-4-4-4
	H23c-2.2,0-4,1.8-4,4v11c0,2.2,1.8,4,4,4h1v6l6-6h3"/>
<path fill="none" stroke="#C50000" stroke-width="2" stroke-linecap="round" stroke-linejoin="round" stroke-miterlimit="10" d="
	M37,28h9c2.2,0,4,1.8,4,4v7c0,2.2-1.8,4-4,4h-2v5l-5-5h-2c-2.2,0-4-1.8-4-4v-7C33,29.8,34.8,28,37,28z"/>
</svg>
