<?xml version="1.0" encoding="utf-8"?>
<!-- Generator: Adobe Illustrator 18.1.1, SVG Export Plug-In . SVG Version: 6.00 Build 0)  -->
<svg version="1.1" id="Layer_1" xmlns="http://www.w3.org/2000/svg" xmlns:xlink="http://www.w3.org/1999/xlink" x="0px" y="0px"
	 viewBox="0 0 150 100" enable-background="new 0 0 150 100" xml:space="preserve">
<path fill="#4A90E2" d="M45,91h-6c-2.8,0-5-2.2-5-5V15c0-2.8,2.2-5,5-5h6v2h-6c-1.7,0-3,1.3-3,3v71c0,1.7,1.3,3,3,3h6V91z"/>
<path fill="#4A90E2" d="M51,91h-6c-2.8,0-5-2.2-5-5V15c0-2.8,2.2-5,5-5h6v2h-6c-1.7,0-3,1.3-3,3v71c0,1.7,1.3,3,3,3h6V91z"/>
<rect x="62" y="62" fill="#4A90E2" width="39" height="2"/>
<rect x="62" y="52" fill="#4A90E2" width="39" height="2"/>
<path fill="#4A90E2" d="M116,32h-16c-2.8,0-5-2.2-5-5V11h2v16c0,1.7,1.3,3,3,3h16V32z"/>
<path fill="#4A90E2" d="M112,91H51c-2.8,0-5-2.2-5-5V15c0-2.8,2.2-5,5-5h45.4L117,30.6V86C117,88.8,114.8,91,112,91z M51,12
	c-1.7,0-3,1.3-3,3v71c0,1.7,1.3,3,3,3h61c1.7,0,3-1.3,3-3V31.4L95.6,12H51z"/>
</svg>
