<?xml version="1.0" encoding="utf-8"?>
<!-- Generator: Adobe Illustrator 18.1.1, SVG Export Plug-In . SVG Version: 6.00 Build 0)  -->
<svg version="1.1" id="Layer_1" xmlns="http://www.w3.org/2000/svg" xmlns:xlink="http://www.w3.org/1999/xlink" x="0px" y="0px"
	 viewBox="0 0 70 50" enable-background="new 0 0 70 50" xml:space="preserve">
<rect x="33" y="13" fill="#4A90E2" width="24" height="2"/>
<rect x="33" y="27" fill="#4A90E2" width="14" height="2"/>
<rect x="33" y="41" fill="#4A90E2" width="20" height="2"/>
<path fill="#4A90E2" d="M23,33h-4c-1.7,0-3-1.3-3-3v-4c0-1.7,1.3-3,3-3h4c1.7,0,3,1.3,3,3v4C26,31.7,24.7,33,23,33z M19,25
	c-0.6,0-1,0.4-1,1v4c0,0.6,0.4,1,1,1h4c0.6,0,1-0.4,1-1v-4c0-0.6-0.4-1-1-1H19z"/>
<path fill="#4A90E2" d="M23,47h-4c-1.7,0-3-1.3-3-3v-4c0-1.7,1.3-3,3-3h4c1.7,0,3,1.3,3,3v4C26,45.7,24.7,47,23,47z M19,39
	c-0.6,0-1,0.4-1,1v4c0,0.6,0.4,1,1,1h4c0.6,0,1-0.4,1-1v-4c0-0.6-0.4-1-1-1H19z"/>
<path fill="#4A90E2" d="M23,19h-4c-2.8,0-5-2.2-5-5v-1h2v1c0,1.7,1.3,3,3,3h4c1.7,0,3-1.3,3-3v-1h2v1C28,16.8,25.8,19,23,19z"/>
<polygon fill="#4A90E2" points="21,11.4 16.3,6.7 17.7,5.3 21,8.6 28.3,1.3 29.7,2.7 "/>
</svg>
