<?xml version="1.0" encoding="utf-8"?>
<!-- Generator: Adobe Illustrator 18.1.1, SVG Export Plug-In . SVG Version: 6.00 Build 0)  -->
<svg version="1.1" id="Layer_1" xmlns="http://www.w3.org/2000/svg" xmlns:xlink="http://www.w3.org/1999/xlink" x="0px" y="0px"
	 viewBox="0 0 70 50" enable-background="new 0 0 70 50" xml:space="preserve">
<path fill="#636A77" d="M35,48c-12.7,0-23-10.3-23-23C12,12.3,22.3,2,35,2c12.7,0,23,10.3,23,23C58,37.7,47.7,48,35,48z M35,4
	c-11.6,0-21,9.4-21,21c0,11.6,9.4,21,21,21c11.6,0,21-9.4,21-21C56,13.4,46.6,4,35,4z"/>
<path fill="#636A77" d="M35,30c-0.6,0-1-0.4-1-1v-3c0-1.2,1-1.9,1.9-2c1.2-0.2,2.1-1.2,2.1-2.5c0-1.4-1.1-2.5-2.5-2.5
	c-1.4,0-2.5,1.1-2.5,2.5c0,0.6-0.4,1-1,1s-1-0.4-1-1c0-2.5,2-4.5,4.5-4.5s4.5,2,4.5,4.5c0,2.2-1.7,4.2-3.9,4.5C36.1,26,36,26,36,26
	l0,3C36,29.6,35.6,30,35,30z"/>
<circle fill="#636A77" cx="35" cy="33" r="1"/>
</svg>
