<?xml version="1.0" encoding="utf-8"?>
<!-- Generator: Adobe Illustrator 18.1.1, SVG Export Plug-In . SVG Version: 6.00 Build 0)  -->
<svg version="1.1" id="Layer_1" xmlns="http://www.w3.org/2000/svg" xmlns:xlink="http://www.w3.org/1999/xlink" x="0px" y="0px"
	 viewBox="0 0 70 50" enable-background="new 0 0 70 50" xml:space="preserve">
<path fill="#636A77" d="M20,45h-3c-1.7,0-3-1.3-3-3V7c0-1.7,1.3-3,3-3h3v2h-3c-0.6,0-1,0.4-1,1v35c0,0.6,0.4,1,1,1h3V45z"/>
<path fill="#636A77" d="M23,45h-3c-1.7,0-3-1.3-3-3V7c0-1.7,1.3-3,3-3h3v2h-3c-0.6,0-1,0.4-1,1v35c0,0.6,0.4,1,1,1h3V45z"/>
<rect x="28" y="30" fill="#636A77" width="19" height="2"/>
<rect x="28" y="25" fill="#636A77" width="19" height="2"/>
<path fill="#636A77" d="M54,16h-8c-1.7,0-3-1.3-3-3V5h2v8c0,0.6,0.4,1,1,1h8V16z"/>
<path fill="#636A77" d="M52,45H23c-1.7,0-3-1.3-3-3V7c0-1.7,1.3-3,3-3h21.4L55,14.6V42C55,43.7,53.7,45,52,45z M23,6
	c-0.6,0-1,0.4-1,1v35c0,0.6,0.4,1,1,1h29c0.6,0,1-0.4,1-1V15.4L43.6,6H23z"/>
</svg>
