<?xml version="1.0" encoding="utf-8"?>
<!-- Generator: Adobe Illustrator 18.1.1, SVG Export Plug-In . SVG Version: 6.00 Build 0)  -->
<svg version="1.1" id="Layer_1" xmlns="http://www.w3.org/2000/svg" xmlns:xlink="http://www.w3.org/1999/xlink" x="0px" y="0px"
	 viewBox="0 0 150 100" enable-background="new 0 0 150 100" xml:space="preserve">
<rect x="70" y="25" fill="#4A90E2" width="48" height="2"/>
<rect x="70" y="53" fill="#4A90E2" width="28" height="2"/>
<rect x="70" y="81" fill="#4A90E2" width="40" height="2"/>
<path fill="#4A90E2" d="M50,63h-8c-2.8,0-5-2.2-5-5v-8c0-2.8,2.2-5,5-5h8c2.8,0,5,2.2,5,5v8C55,60.8,52.8,63,50,63z M42,47
	c-1.7,0-3,1.3-3,3v8c0,1.7,1.3,3,3,3h8c1.7,0,3-1.3,3-3v-8c0-1.7-1.3-3-3-3H42z"/>
<path fill="#4A90E2" d="M50,91h-8c-2.8,0-5-2.2-5-5v-8c0-2.8,2.2-5,5-5h8c2.8,0,5,2.2,5,5v8C55,88.8,52.8,91,50,91z M42,75
	c-1.7,0-3,1.3-3,3v8c0,1.7,1.3,3,3,3h8c1.7,0,3-1.3,3-3v-8c0-1.7-1.3-3-3-3H42z"/>
<path fill="#4A90E2" d="M52,35H40c-3.9,0-7-3.1-7-7v-3h2v3c0,2.8,2.2,5,5,5h12c2.8,0,5-2.2,5-5v-3h2v3C59,31.9,55.9,35,52,35z"/>
<polygon fill="#4A90E2" points="46,23.4 37.3,14.7 38.7,13.3 46,20.6 61.3,5.3 62.7,6.7 "/>
</svg>
