<?xml version="1.0" encoding="utf-8"?>
<!-- Generator: Adobe Illustrator 18.1.1, SVG Export Plug-In . SVG Version: 6.00 Build 0)  -->
<svg version="1.1" id="Layer_1" xmlns="http://www.w3.org/2000/svg" xmlns:xlink="http://www.w3.org/1999/xlink" x="0px" y="0px"
	 viewBox="0 0 150 100" enable-background="new 0 0 150 100" xml:space="preserve">
<rect x="59" y="40" fill="#4A90E2" width="48" height="2"/>
<polygon fill="#4A90E2" points="84,66.6 75,62.1 66,66.6 66,41 68,41 68,63.4 75,59.9 82,63.4 82,41 84,41 "/>
<path fill="#4A90E2" d="M117,82H37c-5,0-9-4-9-9V61c0-5,4-9,9-9h25v2H37c-3.9,0-7,3.1-7,7v12c0,3.9,3.1,7,7,7h80V82z"/>
<rect x="88" y="52" fill="#4A90E2" width="29" height="2"/>
<rect x="88" y="46" fill="#4A90E2" width="19" height="2"/>
<path fill="#4A90E2" d="M62,48H47c-5,0-9-4-9-9V27c0-5,4-9,9-9h60v2H47c-3.9,0-7,3.1-7,7v12c0,3.9,3.1,7,7,7h15V48z"/>
</svg>
