<?xml version="1.0" encoding="utf-8"?>
<!-- Generator: Adobe Illustrator 18.1.1, SVG Export Plug-In . SVG Version: 6.00 Build 0)  -->
<svg version="1.1" id="Layer_1" xmlns="http://www.w3.org/2000/svg" xmlns:xlink="http://www.w3.org/1999/xlink" x="0px" y="0px"
	 viewBox="0 0 28 28" enable-background="new 0 0 28 28" xml:space="preserve">
<line fill="none" stroke="#C6C9D0" stroke-width="2" stroke-miterlimit="10" x1="12" y1="7" x2="24" y2="7"/>
<line fill="none" stroke="#C6C9D0" stroke-width="2" stroke-miterlimit="10" x1="12" y1="14" x2="24" y2="14"/>
<line fill="none" stroke="#C6C9D0" stroke-width="2" stroke-miterlimit="10" x1="12" y1="21" x2="24" y2="21"/>
<path fill="none" stroke="#C6C9D0" stroke-width="2" stroke-miterlimit="10" d="M6.5,16h-1C4.7,16,4,15.3,4,14.5v-1
	C4,12.7,4.7,12,5.5,12h1C7.3,12,8,12.7,8,13.5v1C8,15.3,7.3,16,6.5,16z"/>
<path fill="none" stroke="#C6C9D0" stroke-width="2" stroke-miterlimit="10" d="M6.5,23h-1C4.7,23,4,22.3,4,21.5v-1
	C4,19.7,4.7,19,5.5,19h1C7.3,19,8,19.7,8,20.5v1C8,22.3,7.3,23,6.5,23z"/>
<path fill="none" stroke="#C6C9D0" stroke-width="2" stroke-miterlimit="10" d="M6.5,9h-1C4.7,9,4,8.3,4,7.5v-1C4,5.7,4.7,5,5.5,5h1
	C7.3,5,8,5.7,8,6.5v1C8,8.3,7.3,9,6.5,9z"/>
</svg>
