<?xml version="1.0" encoding="utf-8"?>
<!-- Generator: Adobe Illustrator 18.1.1, SVG Export Plug-In . SVG Version: 6.00 Build 0)  -->
<svg version="1.1" id="Layer_1" xmlns="http://www.w3.org/2000/svg" xmlns:xlink="http://www.w3.org/1999/xlink" x="0px" y="0px"
	 viewBox="0 0 70 50" enable-background="new 0 0 70 50" xml:space="preserve">
<rect x="27" y="18" fill="#4A90E2" width="24" height="2"/>
<polygon fill="#4A90E2" points="40,33.6 35,31.1 30,33.6 30,20 32,20 32,30.4 35,28.9 38,30.4 38,20 40,20 "/>
<path fill="#4A90E2" d="M56,42H16c-2.8,0-5-2.2-5-5v-6c0-2.8,2.2-5,5-5h12v2H16c-1.7,0-3,1.3-3,3v6c0,1.7,1.3,3,3,3h40V42z"/>
<rect x="42" y="26" fill="#4A90E2" width="14" height="2"/>
<rect x="42" y="22" fill="#4A90E2" width="9" height="2"/>
<path fill="#4A90E2" d="M28,24h-7c-2.8,0-5-2.2-5-5v-6c0-2.8,2.2-5,5-5h30v2H21c-1.7,0-3,1.3-3,3v6c0,1.7,1.3,3,3,3h7V24z"/>
</svg>
