<?xml version="1.0" encoding="utf-8"?>
<!-- Generator: Adobe Illustrator 18.1.1, SVG Export Plug-In . SVG Version: 6.00 Build 0)  -->
<svg version="1.1" id="Layer_1" xmlns="http://www.w3.org/2000/svg" xmlns:xlink="http://www.w3.org/1999/xlink" x="0px" y="0px"
	 viewBox="0 0 150 100" enable-background="new 0 0 150 100" xml:space="preserve">
<path fill="#4A90E2" d="M75,95c-24.8,0-45-20.2-45-45C30,25.2,50.2,5,75,5c24.8,0,45,20.2,45,45C120,74.8,99.8,95,75,95z M75,7
	C51.3,7,32,26.3,32,50c0,23.7,19.3,43,43,43c23.7,0,43-19.3,43-43C118,26.3,98.7,7,75,7z"/>
<path fill="#4A90E2" d="M74,58c-0.6,0-1-0.4-1-1v-6c0-2.2,1.9-2.9,2.9-3c2.9-0.4,5.1-3,5.1-6c0-3.3-2.7-6-6-6s-6,2.7-6,6
	c0,0.6-0.4,1-1,1s-1-0.4-1-1c0-4.4,3.6-8,8-8s8,3.6,8,8c0,4-2.9,7.4-6.9,8c-0.3,0-1.1,0.2-1.1,1v6C75,57.6,74.6,58,74,58z"/>
<circle fill="#4A90E2" cx="74" cy="63" r="1"/>
</svg>
