<?xml version="1.0" encoding="utf-8"?>
<!-- Generator: Adobe Illustrator 18.1.1, SVG Export Plug-In . SVG Version: 6.00 Build 0)  -->
<svg version="1.1" id="Layer_1" xmlns="http://www.w3.org/2000/svg" xmlns:xlink="http://www.w3.org/1999/xlink" x="0px" y="0px"
	 viewBox="0 0 150 100" enable-background="new 0 0 150 100" xml:space="preserve">
<path fill="#4A90E2" d="M122,77H28V15h94V77z M30,75h90V17H30V75z"/>
<rect x="61" y="35" fill="#4A90E2" width="32" height="2"/>
<rect x="97" y="35" fill="#4A90E2" width="4" height="2"/>
<rect x="57" y="29" fill="#4A90E2" width="22" height="2"/>
<rect x="49" y="29" fill="#4A90E2" width="2" height="2"/>
<rect x="49" y="35" fill="#4A90E2" width="2" height="2"/>
<rect x="47" y="47" fill="#4A90E2" width="4" height="2"/>
<rect x="47" y="53" fill="#4A90E2" width="4" height="2"/>
<rect x="47" y="59" fill="#4A90E2" width="4" height="2"/>
<rect x="61" y="53" fill="#4A90E2" width="28" height="2"/>
<rect x="93" y="53" fill="#4A90E2" width="10" height="2"/>
<rect x="61" y="59" fill="#4A90E2" width="14" height="2"/>
<rect x="79" y="59" fill="#4A90E2" width="4" height="2"/>
<rect x="87" y="59" fill="#4A90E2" width="10" height="2"/>
<rect x="57" y="47" fill="#4A90E2" width="14" height="2"/>
<path fill="#4A90E2" d="M127,91H23c-8.4,0-12.7-6.2-12.8-6.4l-1-1.6h131.8l-1.1,1.6C139.7,84.8,135.4,91,127,91z M13.2,85
	c1.7,1.6,4.9,4,9.8,4h104c4.8,0,8.1-2.4,9.8-4H13.2z"/>
<path fill="#4A90E2" d="M125,85H25c-1.6,0-3-1.4-3-3V14c0-2.8,2.2-5,5-5h96c2.8,0,5,2.2,5,5v68C128,83.6,126.6,85,125,85z M27,11
	c-1.7,0-3,1.3-3,3v68c0,0.5,0.5,1,1,1h100c0.5,0,1-0.5,1-1V14c0-1.7-1.3-3-3-3H27z"/>
</svg>
