<?xml version="1.0" encoding="utf-8"?>
<!-- Generator: Adobe Illustrator 18.1.1, SVG Export Plug-In . SVG Version: 6.00 Build 0)  -->
<svg version="1.1" id="Layer_1" xmlns="http://www.w3.org/2000/svg" xmlns:xlink="http://www.w3.org/1999/xlink" x="0px" y="0px"
	 viewBox="0 0 70 50" enable-background="new 0 0 70 50" xml:space="preserve">
<path fill="#4A90E2" d="M59,39H11V7h48V39z M13,37h44V9H13V37z"/>
<rect x="28" y="17" fill="#4A90E2" width="16" height="2"/>
<rect x="46" y="17" fill="#4A90E2" width="2" height="2"/>
<rect x="26" y="14" fill="#4A90E2" width="11" height="2"/>
<rect x="22" y="14" fill="#4A90E2" width="1" height="2"/>
<rect x="22" y="17" fill="#4A90E2" width="1" height="2"/>
<rect x="21" y="23" fill="#4A90E2" width="2" height="2"/>
<rect x="21" y="26" fill="#4A90E2" width="2" height="2"/>
<rect x="21" y="29" fill="#4A90E2" width="2" height="2"/>
<rect x="28" y="26" fill="#4A90E2" width="14" height="2"/>
<rect x="44" y="26" fill="#4A90E2" width="5" height="2"/>
<rect x="28" y="29" fill="#4A90E2" width="7" height="2"/>
<rect x="37" y="29" fill="#4A90E2" width="2" height="2"/>
<rect x="41" y="29" fill="#4A90E2" width="5" height="2"/>
<rect x="26" y="23" fill="#4A90E2" width="7" height="2"/>
<path fill="#4A90E2" d="M61,46H9c-4.5,0-6.7-3.3-6.8-3.4l-1-1.6h67.8l-1.1,1.6C67.7,42.7,65.4,46,61,46z M5.5,43c0.8,0.5,2,1,3.5,1
	h52c1.5,0,2.6-0.5,3.5-1H5.5z"/>
<path fill="#4A90E2" d="M59,43H11c-1.5,0-3-1.5-3-3V7c0-1.7,1.3-3,3-3h48c1.7,0,3,1.3,3,3v33C62,41.6,60.6,43,59,43z M11,6
	c-0.6,0-1,0.4-1,1v33c0,0.4,0.6,1,1,1h48c0.5,0,1-0.5,1-1V7c0-0.6-0.4-1-1-1H11z"/>
</svg>
