<?xml version="1.0" encoding="utf-8"?>
<!-- Generator: Adobe Illustrator 18.1.1, SVG Export Plug-In . SVG Version: 6.00 Build 0)  -->
<svg version="1.1" id="Layer_1" xmlns="http://www.w3.org/2000/svg" xmlns:xlink="http://www.w3.org/1999/xlink" x="0px" y="0px"
	 viewBox="0 0 500 500" enable-background="new 0 0 500 500" xml:space="preserve">
<circle fill="#1E65B9" cx="249" cy="538" r="236"/>
<g>
	<path fill="#FFFFFF" d="M149,353h200c2.2,0,4-1.8,4-4v-2c0-2.2-1.8-4-4-4h-8v-92c0-2.2-1.8-4-4-4h-26v-25h0c0-1.4-0.7-2.7-1.9-3.4
		l-58.1-38c-1.2-0.7-2.8-0.8-4.1,0l-57.9,38c-1.3,0.7-2,2-2,3.4h0v25h-26c-2.2,0-4,1.8-4,4v92h-8c-2.2,0-4,1.8-4,4v2
		C145,351.2,146.8,353,149,353z M249,184l57.9,37.9l0.1,0c0,0,0,0,0,0H191L249,184z M191,226L191,226h116v21h-12v-14h-24v14h-10v-14
		h-24v14h-10v-14h-24v14h-12V226z M291,247h-16v-10h16V247z M257,247h-16v-10h16V247z M223,247h-16v-10h16V247z M161,251h26h16h24
		h10h24h10h24h16h26v92h-8v-54c0-13.2-10.8-24-24-24s-24,10.8-24,24v54h-8v-54c0-13.2-10.8-24-24-24c-13.2,0-24,10.8-24,24v54h-8
		v-54c0-13.2-10.8-24-24-24s-24,10.8-24,24v54h-8V251z M325,343h-40v-54c0-11,9-20,20-20s20,9,20,20V343z M269,343h-40v-54
		c0-11,9-20,20-20c11,0,20,9,20,20V343z M213,343h-40v-54c0-11,9-20,20-20s20,9,20,20V343z M149,347h8h12h48h8h48h8h48h12h8l0,2H149
		V347z"/>
	<path fill="#FFFFFF" d="M359,357H139c-2.2,0-4,1.8-4,4v2c0,2.2,1.8,4,4,4h220c2.2,0,4-1.8,4-4v-2C363,358.8,361.2,357,359,357z
		 M359,363H139v-2h220V363z"/>
	<path fill="#FFFFFF" d="M249,197c-5,0-9,4-9,9s4,9,9,9c5,0,9-4,9-9S254,197,249,197z M249,211c-2.8,0-5-2.2-5-5s2.2-5,5-5
		s5,2.2,5,5S251.8,211,249,211z"/>
</g>
<path fill="#3B87E0" d="M98.5,180c0.3-1.1,0.5-2.3,0.5-3.5c0-7.5-6-13.5-13.5-13.5c-1.2,0-2.4,0.2-3.5,0.5
	C81.2,150.4,70.3,140,57,140c-13.8,0-25,11.2-25,25c0,1.8,0.2,3.6,0.6,5.3c-1.5-0.8-3.2-1.3-5.1-1.3c-5.8,0-10.5,4.7-10.5,10.5
	c0,0.2,0,0.3,0,0.5H98.5z"/>
<path fill="#67A2E7" d="M413.8,258c-1.4-2.4-4-4-6.9-4s-5.5,1.6-6.9,4H413.8z"/>
<path fill="#67A2E7" d="M472.4,258c1-2.3,1.5-4.8,1.5-7.5c0-10.8-8.7-19.5-19.5-19.5c-9.1,0-16.7,6.3-18.9,14.7
	c-1.3-0.5-2.7-0.7-4.1-0.7c-6.9,0-12.5,5.6-12.5,12.5c0,0.2,0,0.3,0,0.5H472.4z"/>
<path fill="#67A2E7" d="M354.4,106c-1.4-4.1-5.3-7-9.9-7c-2.1,0-4,0.6-5.7,1.7C337.7,92.4,330.6,86,322,86c-9.4,0-17,7.6-17,17
	c0,1,0.1,2,0.3,3H354.4z"/>
</svg>
